<svg width="150" height="153" fill="none" xmlns="http://www.w3.org/2000/svg">
    <path d="M75 150c41.421 0 75-33.579 75-75S116.421 0 75 0 0 33.579 0 75s33.579 75 75 75Z" fill="#B62026" fill-opacity=".3"/>
    <g filter="url(#a)">
        <mask id="c" style="mask-type:alpha" maskUnits="userSpaceOnUse" x="0" y="0" width="150" height="150">
            <path d="M75 150c41.421 0 75-33.579 75-75S116.421 0 75 0 0 33.579 0 75s33.579 75 75 75Z" fill="url(#b)"/>
        </mask>
        <g mask="url(#c)">
            <path d="M118 43H32a5 5 0 0 0-5 5v105a5 5 0 0 0 5 5h86a5 5 0 0 0 5-5V48a5 5 0 0 0-5-5Z" fill="#fff"/>
        </g>
    </g>
    <path d="M66 53H40a3 3 0 1 0 0 6h26a3 3 0 1 0 0-6ZM66 95H40a3 3 0 1 0 0 6h26a3 3 0 1 0 0-6Z" fill="#B62026" fill-opacity=".5"/>
    <path d="M108 68H42a4 4 0 0 0-4 4v10a4 4 0 0 0 4 4h66a4 4 0 0 0 4-4V72a4 4 0 0 0-4-4Z" stroke="#B62026" stroke-width="2"/>
    <path d="M108 109H42a5 5 0 0 0-5 5v8a5 5 0 0 0 5 5h66a5 5 0 0 0 5-5v-8a5 5 0 0 0-5-5Z" fill="#B62026" fill-opacity=".7"/>
    <path d="M53 32a4 4 0 1 0 0-8 4 4 0 0 0 0 8Z" fill="#fff"/>
    <path d="M75 32a4 4 0 1 0 0-8 4 4 0 0 0 0 8Z" fill="#B62026"/>
    <path d="M97 32a4 4 0 1 0 0-8 4 4 0 0 0 0 8Z" fill="#fff"/>
    <path d="M86 88a5 5 0 1 0 0-10 5 5 0 0 0 0 10Z" fill="#B62026"/>
    <path d="M89.907 104.37c-.8 0-1.547 0-2.227-.043a4.567 4.567 0 0 1-3.884-2.749l-4.219-8.338a1.8 1.8 0 0 1 .182-2.529 1.628 1.628 0 0 1 1.035-.359 1.918 1.918 0 0 1 1.437.714l1.916 2.615.029.034V83.78a1.858 1.858 0 1 1 3.717 0v6.5a1.73 1.73 0 1 1 3.444 0v1.355a1.73 1.73 0 1 1 3.444 0v1.044a1.73 1.73 0 1 1 3.444 0v6.337c-.034 1.949-.915 5.235-4.014 5.235-.225.01-2.131.12-4.3.12l-.004-.001Z" fill="#B62026" stroke="#fff"/>
    <defs>
        <linearGradient id="b" x1="75" y1="0" x2="75" y2="150" gradientUnits="userSpaceOnUse">
            <stop stop-color="#E3ECFA"/>
            <stop offset="1" stop-color="#DAE7FF"/>
        </linearGradient>
        <filter id="a" x="21" y="34" width="108" height="119" filterUnits="userSpaceOnUse" color-interpolation-filters="sRGB">
            <feFlood flood-opacity="0" result="BackgroundImageFix"/>
            <feColorMatrix in="SourceAlpha" values="0 0 0 0 0 0 0 0 0 0 0 0 0 0 0 0 0 0 127 0" result="hardAlpha"/>
            <feOffset dy="-3"/>
            <feGaussianBlur stdDeviation="3"/>
            <feColorMatrix values="0 0 0 0 0.788235 0 0 0 0 0.803922 0 0 0 0 0.85098 0 0 0 0.349 0"/>
            <feBlend in2="BackgroundImageFix" result="effect1_dropShadow_1_259"/>
            <feBlend in="SourceGraphic" in2="effect1_dropShadow_1_259" result="shape"/>
        </filter>
    </defs>
</svg>
