<svg width="1079" height="221" fill="none" xmlns="http://www.w3.org/2000/svg">
    <path d="M986 53c18.52 0 18.52 0 22.12 2.373 2.78 2.908 3.57 5.982 3.61 9.923.01.313.01.625.02.947.01 1.03.02 2.06.04 3.09 0 .715.01 1.43.02 2.145.03 1.88.05 3.76.07 5.64.03 1.92.05 3.84.08 5.759.05 3.764.09 7.529.14 11.293.25-.25.49-.5.75-.757.33-.329.66-.657.99-.996.33-.325.65-.65.98-.986 7.39-7.246 17.06-11.42 27.45-11.46 9.99.186 20.48 2.897 27.69 10.14 7.7 8.435 9.07 19.919 9.04 30.869v2.003c0 1.801 0 3.602-.01 5.403v5.66c0 3.567 0 7.134-.01 10.702 0 4.063-.01 8.126-.01 12.19 0 8.354-.01 16.708-.02 25.062h-25.64l-.06-12.367c-.01-2.926-.03-5.852-.04-8.778-.03-3.783-.05-7.567-.06-11.35-.01-2.997-.03-5.994-.05-8.991-.01-1.584-.02-3.168-.02-4.752.11-14.346.92-19.762-6.16-26.937-4.2-4.265-8.77-5.389-14.25-5.677-5.68.54-10.32 2.028-14.3 6.232-5.32 6.436-6.32 14.691-6.37 22.765 0 .541 0 1.081-.01 1.638a947.4 947.4 0 0 1-.04 5.331l-.03 3.708-.06 8.743c-.02 3.646-.05 7.292-.08 10.938-.05 6.499-.09 12.998-.14 19.497H986V53ZM966.473 88.624c4.809 4.5 7.101 11.11 7.453 17.609.087 2.652.076 5.304.07 7.956l.002 2.578c.002 1.795 0 3.589-.005 5.384-.005 2.278-.002 4.556.004 6.834.003 1.773.002 3.547 0 5.321-.001.838 0 1.677.002 2.516.024 12.297-1.275 24.723-10.288 33.883l-1.224 1.203-.939.944c-9.759 9.229-25.676 11.434-38.538 11.12-10.177-.47-19.648-3.44-26.855-10.944-3.569-4.148-5.572-9.073-6.548-14.446l-.18-.965c-1.337-8.741.442-18.042 5.646-25.226 8.678-10.619 23.398-12.49 36.098-14.043 5.816-.712 11.922-1.472 16.057-6.06.897-1.961 1.039-3.505.683-5.629-1.05-2.504-2.723-3.494-5.09-4.579-6.288-2.324-13.636-1.964-19.962-.016-1.918.943-1.918.943-3.136 2.632-.528 1.024-.996 1.676-1.875 2.423-1.932.46-3.826.374-5.802.314l-1.706-.014a333.328 333.328 0 0 1-4.473-.079c-1.523-.033-3.047-.048-4.571-.064a835.454 835.454 0 0 1-8.956-.157c.885-7.52 3.812-13.467 9.11-18.84l.715-.77c14.588-14.292 49.5-11.279 64.308 1.115Zm-20.594 43.539c-5.699 2.003-11.381 3.704-17.272 5.042-4.764 1.122-9.519 2.743-12.439 6.932-1.851 3.207-2.263 6.353-1.48 9.965.842 2.83 1.708 4.921 4.224 6.546 4.775 2.554 9.869 2.423 15.058 1.266 4.839-1.504 9.315-4.317 11.98-8.752 2.685-5.155 3.003-9.503 2.929-15.286l-.012-1.869a857.054 857.054 0 0 0-.045-4.535c-1.114 0-1.89.313-2.943.691ZM852 80.704c19.295 0 19.295 0 22.526 2.762 2.766 2.85 3.428 6.128 3.384 9.942l.004 1.155c.002 1.268-.005 2.535-.013 3.803l.001 2.737c0 2.47-.008 4.94-.018 7.41-.008 2.584-.009 5.169-.011 7.753-.004 4.89-.015 9.78-.029 14.67-.016 5.569-.023 11.138-.03 16.706-.015 11.453-.04 22.905-.07 34.358H852V80.704ZM852 52.156l8.246-.086 2.577-.038c.687-.004 1.375-.008 2.062-.01l1.049-.022c3.105-.002 5.857.692 8.506 2.343 4.926 5.075 3.304 10.947 3.304 18.073H852v-20.26ZM837 81v26.627c-6.808.345-6.808.345-8.919.439-5.489.317-10.849 1.32-15.083 5.07-4.404 5.017-5.139 11.085-5.172 17.475l-.014 1.684c-.012 1.517-.022 3.035-.031 4.552-.01 1.588-.023 3.177-.035 4.765-.023 3.004-.044 6.009-.064 9.014-.025 3.757-.053 7.515-.081 11.273-.05 6.7-.096 13.401-.142 20.101H781.15c-.056-13.839-.056-13.839-.07-20.74-.008-3.713-.017-7.425-.035-11.138-.014-2.942-.023-5.885-.026-8.827a804.297 804.297 0 0 0-.016-4.66c-.092-15.829 1.715-31.152 13.186-43.096 2.38-2.293 4.839-4.057 7.731-5.653l1.291-.726C813.709 81.587 825.347 81 837 81ZM762.212 88.508c5.305 4.9 7.337 11.746 7.715 18.776.083 2.497.076 4.993.069 7.491l.003 2.41c.001 1.675-.001 3.351-.005 5.026-.005 2.121-.002 4.241.003 6.362.004 1.658.002 3.315 0 4.973-.001.78 0 1.561.002 2.341.026 12.035-.878 24.384-9.24 33.772l-.936 1.056c-7.611 8.114-18.871 11.486-29.602 12.713l-1.305.154c-11.25 1.135-23.468.295-32.794-6.78a106.032 106.032 0 0 1-1.908-1.635l-.834-.692c-5.557-5.017-7.969-12.968-8.375-20.247-.101-8.335 1.245-16.242 6.93-22.663l.705-.839c7.794-8.626 20.891-10.508 31.747-11.87 10.134-.95 10.134-.95 18.596-6.109 1.068-1.785 1.2-3.467.912-5.508-.86-2.321-1.723-3.312-3.874-4.503-6.527-2.917-14.475-2.626-21.195-.545-2.277 1.014-3.904 2.814-5.013 5.048h-25.525c.321-2.909.638-5.13 1.653-7.773l.363-.96c1.083-2.733 2.513-5.05 4.365-7.33l1.063-1.372c5.696-6.835 15.666-9.575 24.148-10.418 14.278-1.118 30.704-.295 42.332 9.122Zm-20.398 43.763c-5.401 1.894-10.764 3.537-16.355 4.765-5.073 1.139-9.99 2.682-13.304 6.968-1.897 3.098-2.324 6.282-1.732 9.849.75 2.789 2.068 5.157 4.374 6.921 4.738 2.7 10.287 2.341 15.424 1.083 4.908-1.473 8.998-4.399 11.84-8.742 1.89-3.632 2.808-7.295 2.79-11.376l-.004-1.797-.012-1.866-.006-1.892c-.006-1.54-.013-3.079-.022-4.619-1.13 0-1.927.325-2.993.706ZM590 81.057h29.257a5933.174 5933.174 0 0 1 10.431 36.042l.406 1.423a21397.3 21397.3 0 0 1 4.069 14.277l1.541 5.411.726 2.553 1 3.511.297 1.049c.488 1.734.488 1.734 1.187 3.389l.213-.741 5.165-18.002 2.498-8.706 2.418-8.43.915-3.188.44-1.533.432-1.509.847-2.937a608.46 608.46 0 0 0 2.087-7.373l.421-1.501c.262-.933.519-1.867.771-2.803 1.14-4.028 2.737-7.112 6.193-9.56 3.095-1.587 6.605-1.436 9.998-1.416l1.278.002c1.337.002 2.673.008 4.01.014l2.731.006c2.223.005 4.446.013 6.669.022a157.94 157.94 0 0 1-3.08 10.26l-.502 1.505-1.057 3.16a2735.98 2735.98 0 0 1-7.975 23.611 5719.56 5719.56 0 0 0-9.821 29.021c-.987 2.936-1.975 5.87-2.964 8.805l-.5 1.486-.995 2.954c-2.01 5.967-4.02 11.935-6.021 17.905-.906 2.703-1.814 5.406-2.725 8.108-.348 1.035-.695 2.07-1.04 3.106-7.233 21.677-7.233 21.677-16.12 26.617-6.594 3.078-13.734 3.425-20.886 3.4l-1.556.005c-7.447-.009-7.447-.009-8.415-.977a29.103 29.103 0 0 1-.052-1.982v-1.276l.007-1.386.002-1.413c.003-1.495.008-2.99.014-4.485l.007-3.033c.005-2.484.012-4.968.022-7.452l.969-.021c1.477-.034 2.954-.078 4.431-.122l1.524-.032c4.985-.161 10.048-.872 13.762-4.482 2.458-3.952 2.569-7.875 1.546-12.334-1.386-5.784-3.507-11.36-5.499-16.956-.567-1.595-1.128-3.191-1.69-4.788-.689-1.957-1.379-3.913-2.07-5.869-1.96-5.549-3.89-11.108-5.81-16.671l-2.513-7.271-.487-1.408a5532.38 5532.38 0 0 0-4.935-14.186l-.416-1.194a9644.776 9644.776 0 0 0-4.347-12.431l-1.894-5.413-.902-2.57-1.248-3.564-.367-1.042c-.877-2.514-1.63-5.028-2.397-7.585ZM570.698 87.572a62.33 62.33 0 0 1 3.292 3.15l.862.825c4.624 4.783 7.142 11.905 7.597 18.454l.115 1.618.082 1.224c-2.633.046-5.266.079-7.899.101-.894.009-1.788.022-2.682.038-10.724.188-10.724.188-14.845-2.962-.889-1.182-1.583-2.341-2.306-3.629-1.959-3.384-4.197-4.633-7.858-5.704-2.329-.51-4.632-.486-7.005-.46l-1.468-.016c-3.637.014-7.336.373-10.377 2.58-1.402 1.596-1.985 2.845-2.05 4.983.724 2.83 2.187 4.446 4.556 5.991 5.178 2.79 11.191 3.968 16.881 5.222 27.531 6.093 27.531 6.093 34.541 16.61 4.338 7.381 4.653 15.817 2.774 24.041-2.13 7.721-6.577 13.786-13.496 17.795-4.256 2.336-8.656 3.902-13.366 4.997l-.95.229c-5.563 1.268-11.2 1.297-16.874 1.327l-1.102.011c-6.787.052-13.586-.543-20.025-2.863l-1.03-.361c-2.685-.977-5.084-2.168-7.398-3.873l-1.157-.848c-6.775-5.228-10.68-11.843-12.054-20.351l-.456-7.373h26.423l.911 5.069c1.616 3.702 3.505 5.843 7.191 7.475 4.091 1.559 7.677 1.838 12.028 1.857l1.631.029c4.299.019 8.596-.38 11.951-3.37 1.365-2.016 2.247-3.978 1.822-6.452-1.854-4.091-6.484-5.758-10.413-7.257-4.687-1.65-9.623-2.474-14.474-3.479-11.787-2.485-23.805-6.063-30.747-16.779-1.193-2.115-2.03-4.247-2.678-6.587l-.24-.842c-1.599-7.416-.321-16.305 3.48-22.803 5.857-8.451 14.479-13.178 24.435-15.025 13.88-2.353 30.809-1.724 42.378 7.408Z" fill="#289E46"/>
    <path d="M407 53c17.534 0 17.534 0 21.77 2.83 2.702 2.744 4.076 5.77 4.104 9.59l.014 1.442.008 1.575.013 1.663c.013 1.504.023 3.008.032 4.511.01 1.572.022 3.144.035 4.716.023 2.976.044 5.952.063 8.928.023 3.389.048 6.778.074 10.166.052 6.97.102 13.939.149 20.909l2.404-2.588.68-.729a91.332 91.332 0 0 0 4.057-4.689c1.675-2.067 3.441-4.016 5.26-5.956a84.977 84.977 0 0 0 3.926-4.536c1.769-2.183 3.649-4.229 5.577-6.271 1.853-1.975 3.576-4.02 5.263-6.138 2.789-3.316 2.789-3.316 4.69-3.677l1.646.016.914-.001c.99.001 1.979.019 2.969.037l2.066.01c1.808.008 3.616.03 5.424.056 1.847.024 3.694.034 5.541.046 3.62.024 7.24.063 10.86.111-.656 1.363-1.28 2.278-2.39 3.317a52.937 52.937 0 0 0-3.369 3.545c-1.282 1.477-2.631 2.851-4.031 4.217a54.052 54.052 0 0 0-2.419 2.645 56.4 56.4 0 0 1-3.225 3.431 54.646 54.646 0 0 0-3.197 3.402c-1.4 1.614-2.89 3.107-4.418 4.601-1.173 1.183-2.254 2.433-3.344 3.692a49.85 49.85 0 0 1-2.403 2.485c-3.197 2.955-3.197 2.955-5.298 6.633.331.884.331.884.905 1.802l.645 1.106.725 1.209.753 1.282a816.683 816.683 0 0 0 2.501 4.208l1.735 2.916c1.071 1.798 2.144 3.595 3.22 5.39 2.126 3.551 4.232 7.113 6.333 10.678 2.549 4.325 5.111 8.642 7.688 12.951a2327.156 2327.156 0 0 1 8.132 13.697l.766 1.303.677 1.148c.475.864.475.864.475 1.321h-31.33l-3.571-6.69a1208.784 1208.784 0 0 0-8.48-15.634 422.689 422.689 0 0 1-2.764-5.085l-.738-1.367c-.459-.853-.916-1.707-1.369-2.563-2.072-3.826-4.248-7.642-8.418-9.374-1.627-.221-2.403-.203-3.83.601-1.615 1.604-1.317 3.665-1.333 5.785l-.014 1.123c-.014 1.225-.026 2.45-.037 3.675l-.029 2.548c-.025 2.236-.048 4.472-.07 6.708-.028 2.682-.058 5.364-.088 8.047-.045 4.075-.086 8.151-.128 12.226H407V53ZM396 81v26.627c-6.808.345-6.808.345-8.919.439-5.489.317-10.849 1.32-15.083 5.07-4.404 5.017-5.139 11.085-5.172 17.475l-.014 1.684c-.012 1.517-.022 3.035-.031 4.552-.01 1.588-.023 3.177-.035 4.765-.023 3.004-.044 6.009-.064 9.014-.025 3.757-.053 7.515-.081 11.273-.05 6.7-.096 13.401-.142 20.101H340.15c-.056-13.725-.056-13.725-.07-20.569-.007-3.682-.017-7.364-.035-11.046-.014-2.918-.022-5.836-.025-8.754a890.14 890.14 0 0 0-.017-4.622c-.095-16.127 1.702-31.211 13.157-43.47C364.644 82.574 380.888 81 396 81ZM236.061 52.153c2.197-.034 4.394-.059 6.592-.075.746-.007 1.491-.016 2.237-.028 8.968-.14 8.968-.14 13.053 2.224 2.916 3.17 3.787 6.398 3.842 10.629l.013.922c.015 1 .026 2 .037 3l.029 2.086c.025 1.826.048 3.653.07 5.479.023 1.865.049 3.73.074 5.596.049 3.656.095 7.313.14 10.97l.906-1.124 1.213-1.486.592-.737c4.906-5.977 12.355-9.598 20.019-10.35 11.478-.615 22.552 1.634 31.448 9.314 9.635 9.408 13.476 23.575 13.646 36.753l.006 1.062.009 1.142c.008 1.207.011 2.413.012 3.62l.001 1.247c-.017 14.355-2.481 28.312-12.93 38.954l-.955.974c-3.913 3.73-8.539 6.139-13.605 7.879l-.917.32c-6.029 1.934-12.17 2.518-18.463 2.467-1.073-.007-2.144 0-3.216.009-6.28.009-12.445-.745-18.395-2.853l-1.037-.359c-4.788-1.713-8.698-4.17-12.522-7.52l-.885-.771c-7.359-6.862-10.405-17.898-11.014-27.653-.085-2.978-.058-5.959-.052-8.938l-.001-2.712c0-2.443.003-4.887.006-7.33.003-2.558.003-5.115.004-7.673.001-4.838.005-9.676.01-14.515.005-5.51.007-11.02.01-16.53.004-11.331.012-22.662.023-33.993Zm31.949 56.191c-6.634 8.942-7.43 21.747-5.944 32.432 1.147 7.052 3.535 12.676 9.007 17.389 4.652 3.284 10.559 3.605 16.019 2.785 5.136-1.04 9.086-3.698 11.985-8.023 5.715-9.554 6.147-22.737 3.588-33.363-1.491-5.836-3.803-11.171-8.937-14.689-8.044-4.719-19.349-3.547-25.718 3.469Z" fill="#B62327"/>
    <path d="M92 0a98.174 98.174 0 0 1 6.461 5.942l.933.93 3.024 3.024 2.119 2.118c1.477 1.476 2.954 2.953 4.429 4.43 1.885 1.887 3.771 3.772 5.659 5.656a7207.58 7207.58 0 0 1 4.372 4.371l2.086 2.084c.975.974 1.948 1.949 2.921 2.924l.859.855a79.934 79.934 0 0 1 3.952 4.245c1.792 2.07 3.716 3.989 5.663 5.91l1.176 1.169 2.515 2.492c1.331 1.317 2.658 2.637 3.985 3.957l1.371 1.363.692.689c3.085 3.067 6.172 6.132 9.263 9.192 2.093 2.073 4.184 4.149 6.27 6.228 1.1 1.097 2.202 2.191 3.309 3.282a851.532 851.532 0 0 1 3.691 3.67l1.092 1.069c4.923 4.949 8.102 10.523 8.158 17.592-.087 5.155-1.019 9.274-4.78 13.019-4.254 3.595-9.047 4.862-14.522 4.786l-1.545.001a694.693 694.693 0 0 1-5.002-.03c-1.164-.004-2.327-.006-3.49-.008-2.737-.006-5.475-.021-8.212-.039-3.12-.021-6.239-.031-9.359-.04-6.411-.019-12.821-.051-19.231-.092l-.033-1.397c-.296-12.772-.296-12.772-.997-25.528l-.087-1.243c-1.892-26.752-6.185-54.489-16.286-79.475C92 1.83 92 1.83 92 0Z" fill="#FAA61A"/>
    <path d="M181.569 93c1.429 1.62 1.966 3.443 2.563 5.481l.299.978c3.065 10.168 1.472 21.381-3.318 30.732-3.268 5.674-7.632 10.051-12.361 14.478-2.903 2.724-5.71 5.536-8.491 8.385l-.966.985-.834.857a65.45 65.45 0 0 1-2.682 2.425c-2.098 1.846-4.055 3.813-6.009 5.811l-1.158 1.178-2.472 2.517a2108.877 2108.877 0 0 1-5.282 5.363l-.684.693a4696.802 4696.802 0 0 0-9.125 9.275c-2.056 2.097-4.117 4.19-6.182 6.278a726.358 726.358 0 0 0-3.256 3.312c-6.137 6.28-11.361 10.934-19.79 13.742l-.926.326c-8.066 2.46-17.536.873-24.964-2.796-5.543-3.202-9.961-7.805-14.435-12.322l-1.962-1.969a3491.256 3491.256 0 0 1-5.287-5.322c-1.472-1.484-2.947-2.967-4.42-4.45-3.477-3.497-6.95-6.997-10.422-10.498-3.58-3.61-7.165-7.216-10.751-10.819a8361.855 8361.855 0 0 1-9.245-9.305 3799.105 3799.105 0 0 0-5.516-5.551 2354.261 2354.261 0 0 1-5.176-5.216 632.411 632.411 0 0 0-1.9-1.912c-.867-.868-1.73-1.74-2.591-2.614l-.763-.758C1.313 130.087.004 128.038 0 124.91c.067-2.267.479-3.557 2.022-5.28 2.069-1.881 3.48-2.352 6.233-2.355l1.643-.005 1.814.001 1.92-.004c1.764-.003 3.527-.004 5.29-.004 1.9-.001 3.8-.005 5.701-.008l9.885-.012c5.21-.005 10.42-.014 15.63-.024l5.348-.011 1.35-.002 15.22-.027 1.407-.002c7.51-.012 15.02-.02 22.531-.028 7.712-.008 15.424-.021 23.136-.039 4.756-.011 9.512-.017 14.267-.018 3.262-.001 6.525-.007 9.787-.017 1.88-.005 3.761-.009 5.642-.006 1.724.002 3.449-.002 5.174-.01.913-.003 1.826 0 2.739.004 7.363-.054 13.974-2.196 19.392-7.405 3.901-4.637 4.943-10.772 5.438-16.658Z" fill="#B62026"/>
    <path d="M181.824 93c1.431 1.643 1.969 3.49 2.567 5.555l.3.992c1.883 6.322 1.775 11.958-.585 18.116l-.367 1.04c-2.002 4.859-6.257 7.72-10.73 9.909-4.295 1.749-7.947 2.282-12.582 2.251l-1.898.004c-1.728.004-3.455-.001-5.183-.007-1.867-.005-3.735-.002-5.602 0-3.232.003-6.465.001-9.697-.004-4.676-.008-9.352-.005-14.029 0-7.592.009-15.183.014-22.775.013h-1.376c-5.068 0-10.136-.001-15.203-.005l-1.382-.001h-1.38l-2.757-.002-1.376-.001c-7.566-.005-15.132 0-22.699.011-4.665.007-9.33.006-13.996-.005-3.195-.007-6.39-.005-9.584.003a784.3 784.3 0 0 1-5.53-.005 449.58 449.58 0 0 0-5.063.003c-.9.003-1.8-.005-2.7-.015-3.242-.031-3.242-.031-6.056 1.401-1.255 1.522-1.533 2.561-1.5 4.49l.012.959.016.902V140a777.551 777.551 0 0 1-3.825-3.823 462.211 462.211 0 0 0-1.938-1.93l-1.235-1.245-1.137-1.138c-2.118-2.497-2.617-4.649-2.523-7.862.307-2.338 1.496-3.561 3.155-5.088 1.725-1.217 3.027-1.309 5.073-1.311l1.646-.005 1.817.001 1.923-.004c1.766-.003 3.532-.004 5.298-.005 1.904 0 3.807-.004 5.71-.007 3.3-.006 6.6-.009 9.9-.012 5.219-.005 10.437-.015 15.655-.025l5.356-.01a20343.656 20343.656 0 0 1 16.597-.03l1.408-.002c7.522-.012 15.044-.021 22.567-.029 7.724-.008 15.448-.021 23.172-.039 4.763-.011 9.526-.018 14.289-.019 3.267-.001 6.534-.007 9.802-.017 1.883-.005 3.767-.009 5.65-.006 1.728.003 3.455-.001 5.182-.01.915-.003 1.83 0 2.745.004 7.374-.055 13.995-2.226 19.421-7.505 3.907-4.7 4.951-10.917 5.447-16.883Z" fill="#289D45"/>
</svg>
